<?xml version="1.0" encoding="UTF-8"?>
<svg xmlns="http://www.w3.org/2000/svg" version="1.1" viewBox="0 0 512 512">
  <defs>
    <style>
      .cls-1 {
        fill: #f8d513;
      }

      .cls-2 {
        fill: #f73d13;
      }

      .cls-3 {
        fill: #0d2951;
      }

      .cls-4 {
        fill: #ff9de7;
      }

      .cls-5 {
        fill: #fcd202;
      }

      .cls-6 {
        fill: #0c2752;
      }

      .cls-7 {
        fill: #ff4014;
      }

      .cls-8 {
        fill: #091b4b;
      }

      .cls-9 {
        fill: #ff4114;
      }

      .cls-10 {
        fill: #f6ca07;
      }

      .cls-11 {
        fill: #0e274f;
      }
    </style>
  </defs>
  <!-- Generator: Adobe Illustrator 28.7.1, SVG Export Plug-In . SVG Version: 1.2.0 Build 142)  -->
  <g>
    <g id="Layer_2">
      <ellipse class="cls-2" cx="256.5" cy="446.5" rx="173.5" ry="10.5"/>
      <path class="cls-9" d="M455.5,188c0-11.94-14.33-21.96-33.67-24.74-8.66-1.92-19.37-1.42-31.15,1.35,24.15-38.06,27.94-78.5,7.65-93.16-15.93-11.51-42.27-3.93-66.67,16.73-1.36-14.91-6.74-25.83-15.95-29.42-17.9-6.98-43.9,16.17-60.4,52.6-16.48-36.86-42.73-60.38-60.75-53.35-9.12,3.56-14.49,14.31-15.91,29.02-23.99-19.73-49.6-26.77-65.21-15.5-20.38,14.72-16.48,55.46,7.97,93.67-15.42-3.83-29.12-3.82-38.88.33-15.89,3.89-27.02,12.93-27.02,23.46,0,8.22,6.79,15.52,17.33,20.19,8.19,17.38,25.37,36.54,48.51,52.2,41.2,27.88,85.7,34.08,99.39,13.85,8.61-12.72,2.98-32.86-12.62-52.99,3.96-.82,7.61-2.34,10.83-4.67,4.87-3.52,8.34-8.53,10.49-14.63,8.33,5.34,16.47,7.17,23.39,4.47.57-.22,1.13-.48,1.67-.76.94.59,1.92,1.1,2.96,1.51,7.33,2.86,16.01.65,24.85-5.43,2.15,6.15,5.63,11.21,10.53,14.75,2.93,2.12,6.23,3.57,9.8,4.43-15.62,20.14-21.27,40.3-12.65,53.03,13.69,20.23,58.19,14.03,99.39-13.85,23.46-15.88,40.79-35.36,48.84-52.93,10.52-4.66,17.3-11.96,17.3-20.17Z"/>
      <g id="Layer_3">
        <path class="cls-6" d="M237,153h45s36-63,61-61,35,36,46,76,13,69,10,112-47,59-74,60-136-2-136-2c0,0-38,1-61-29s-17-48-11-97,28-103,41-114,25-9,33-4,32,35,38,47,8,12,8,12Z"/>
      </g>
      <g id="Layer_4">
        <path class="cls-4" d="M133,239"/>
        <path class="cls-4" d="M227,172"/>
        <path class="cls-5" d="M328,119s10-13,18-7,20,43,25,63,10,72,9,84-2,45-35,56-90,9-90,9c0,0-72-1-96-14s-29.02-32.79-26-71,13-83,23-104,18-32,28-22,28.88,37.74,34,49,11,11,11,11h56l4.67-.61c2.33-1.39,4.59-3.1,5.33-4.39,2.8-4.82,8.55-15.61,18-29,12-17,15-20,15-20Z"/>
      </g>
      <g>
        <path class="cls-7" d="M191,149s-8-13-16-9-18,42-18,42c0,0-2,8,7,7s9-3,25-9,15-7,14-12-12-19-12-19Z"/>
        <path class="cls-7" d="M359.27,183.54s-10-38-18-42-16,9-16,9c0,0-11,14-12,19s-2,6,14,12,16,8,25,9,7-7,7-7Z"/>
      </g>
      <g>
        <path class="cls-3" d="M193,232c-5.5,0-10,4.5-10,10v26c0,5.5,4.5,10,10,10s10-4.5,10-10v-26c0-5.5-4.5-10-10-10Z"/>
        <path class="cls-3" d="M311,233c-5.5,0-10,4.5-10,10v26c0,5.5,4.5,10,10,10s10-4.5,10-10v-26c0-5.5-4.5-10-10-10Z"/>
        <path class="cls-3" d="M129.49,269.77h18.79c3.92,0,7.11,3.18,7.11,7.11v.53c0,3.92-3.18,7.11-7.11,7.11h-18.79c-3.92,0-7.1-3.18-7.1-7.1v-.54c0-3.92,3.18-7.11,7.11-7.11Z" transform="translate(-81.3 58.93) rotate(-18.64)"/>
        <path class="cls-3" d="M141.75,295.48h18.79c3.92,0,7.1,3.18,7.1,7.1v.53c0,3.92-3.18,7.11-7.11,7.11h-18.79c-3.92,0-7.11-3.18-7.11-7.11v-.54c0-3.92,3.18-7.11,7.11-7.11Z" transform="translate(-144.49 138.03) rotate(-34.34)"/>
        <path class="cls-3" d="M369.43,262.32h.53c3.92,0,7.11,3.18,7.11,7.11v18.79c0,3.92-3.18,7.11-7.11,7.11h-.53c-3.92,0-7.11-3.18-7.11-7.11v-18.79c0-3.92,3.18-7.11,7.11-7.11Z" transform="translate(-12.66 540.01) rotate(-71.36)"/>
        <path class="cls-3" d="M357.16,288.03h.54c3.92,0,7.11,3.18,7.11,7.11v18.79c0,3.92-3.18,7.11-7.11,7.11h-.53c-3.92,0-7.11-3.18-7.11-7.11v-18.79c0-3.92,3.18-7.11,7.11-7.11Z" transform="translate(-95.65 427.89) rotate(-55.66)"/>
        <path class="cls-8" d="M272.5,266.5c-.56-.35-1.36-.37-2,0-.79.45-.92,2.5-1,3-.2,1.28-.81,5.09-2,7-1.17,1.88-3.63,3.1-6,3-3.72-.16-5.73-3.53-6-4-.36-.63-.92-1.63-1-3-.07-1.16.26-1.68,0-3-.15-.78-.31-1.58-1-2-.59-.36-1.41-.36-2,0-.69.42-.85,1.22-1,2-.26,1.32.07,1.84,0,3,0,0-.09,1.51-1,3-1.47,2.42-4.45,3.5-7.5,3.5s-5.47-2.39-6-3c-.62-.71-2-5-2-7,0-1.52-.5-2.5-1-3s-1.42-.36-2,0c-.75.47-1,2.47-1,4,0,3,.28,3.86,1.5,6.5.54,1.16,1.58,3.43,4,5,3.56,2.32,9.79,2.28,13,0,1.94-1.38,2.57-3.18,4-3,1.25.16,1.48,1.63,3,3,2.31,2.08,4.49,2.02,6,2,.95-.02,6.6-.22,10-5,0,0,2.75-3.77,2-9-.19-1.3-.63-2.77-1-3Z"/>
      </g>
      <path class="cls-11" d="M187.22,337.98s-4.22,13.02-10.22,38.02,2,27-29,29c-15.02.97-23.24,6.87-27.71,12.7-5.62,7.32-5.97,17.55-.6,25.06,3.62,5.06,10.01,9.79,21.31,10.25,25,1,236,2,236,2,0,0,16-3,18-21s-12-27-17-30-20-7-28-8-12-6-16-33-22.52-41.26-22.52-41.26l-124.26,16.24Z"/>
      <path class="cls-1" d="M211,340s-6.12,14.37-11.36,30.61c-4.92,15.25-9.06,32.16-6.64,40.39,5,17,11,26,29,26s14,0,14,0c0,0-5-4-5-10s-2-10-4-16-13-31-13-31c0,0-2-9,5-12s11,6,11,6l8,17s2,2,9-5,14-9,26-10,29,3,33,10,1,11,1,11c0,0-3,6-13,1s-17-6-28-2-14,14-16,21,4,17,8,18,116,2,116,2c0,0,3-1,3-6s-7-9-7-9c0,0-48-16-51-40s-16-40-16-40h-22s-6-2-7-9,4.78-9.04,4.78-9.04l-44.02-.74s4.55,3.4,3.9,8.59-.65,7.19-5.65,8.19-22,0-22,0Z"/>
      <path class="cls-10" d="M175,422s3,11,6,14-36,1-36,1c0,0-5-2-2-7,1.71-2.84,3.73-4.72,5.17-5.8,1.03-.78,2.27-1.21,3.56-1.27l23.28-.93Z"/>
      <g>
        <path class="cls-2" d="M231.56,430.45c-5.74.54-11.58-.1-17.09-2.11-5.72-2.08-11.35-5.14-15.38-9.82-1.74-2.02-3.12-4.05-4.24-6.15-.57-.28-1.13-.57-1.69-.86,4.97,16.66,11.03,25.48,28.84,25.48h14s-3.13-2.52-4.44-6.55Z"/>
        <path class="cls-2" d="M375.31,426.62h-53.21c-.95,1.19-1.84,2.44-2.62,3.79-.13.47-.25.95-.36,1.42-.15.62-.28,1.26-.39,1.89.02.93.11,2.01.16,2.67,28.01.36,55.11.61,55.11.61,0,0,3-1,3-6,0-1.6-.72-3.09-1.69-4.38Z"/>
        <path class="cls-2" d="M281,342s-6-2-7-9,4.78-9.04,4.78-9.04l-44.02-.74s4.55,3.4,3.9,8.59c-.65,5.19-.65,7.19-5.65,8.19s-22,0-22,0c0,0-5.23,12.28-10.16,26.98.61.82,1.18,1.67,1.67,2.54,1,1.77,2.5,3.21,4.38,3.98,2.29.94,4.58,1.86,6.88,2.76.17-2.84,1.22-6.53,5.23-8.25,7-3,11,6,11,6l4.45,9.47c1.11.34,2.22.67,3.34,1,1.61.47,3.29.69,4.98.65,1.8-.05,3.59-.12,5.39-.21,6.63-6.11,13.5-7.95,24.85-8.9,5.61-.47,12.22.22,18.12,1.78,8.41-2.98,16.62-6.58,24.57-10.84-4.92-15.53-12.69-24.94-12.69-24.94h-22Z"/>
        <path class="cls-2" d="M175,422l-4.02.16c-.81,3.01-3.2,5.49-6.35,6.78-2.7,1.11-16.89,1.02-13.15,6.94.3.48.51.95.63,1.42,11.1.41,31.07.87,28.9-1.31-3-3-6-14-6-14Z"/>
      </g>
    </g>
  </g>
</svg>