<?xml version="1.0" encoding="UTF-8"?>
<svg xmlns="http://www.w3.org/2000/svg" version="1.1" viewBox="0 0 512 512">
  <defs>
    <style>
      .cls-1 {
        fill: #ff9de7;
      }

      .cls-2 {
        fill: #717f60;
      }

      .cls-3 {
        fill: #e28305;
      }

      .cls-4 {
        fill: #d3bf81;
      }

      .cls-5 {
        fill: #e5b25d;
      }

      .cls-6 {
        fill: #323f0e;
      }

      .cls-7 {
        fill: #ffe8c0;
      }
    </style>
  </defs>
  <!-- Generator: Adobe Illustrator 28.7.1, SVG Export Plug-In . SVG Version: 1.2.0 Build 142)  -->
  <g>
    <g id="Layer_2">
      <ellipse class="cls-3" cx="257" cy="494.73" rx="219.25" ry="13.27"/>
      <path class="cls-5" d="M508.47,168.07c0-15.09-18.11-27.76-42.55-31.26-10.94-2.42-24.48-1.8-39.36,1.7,30.52-48.1,35.31-99.2,9.66-117.72-20.13-14.54-53.42-4.96-84.25,21.14-1.72-18.84-8.52-32.64-20.15-37.17-22.61-8.82-55.48,20.44-76.33,66.47C234.67,24.65,201.5-5.06,178.73,3.81c-11.53,4.49-18.31,18.08-20.11,36.68-30.31-24.93-62.68-33.83-82.41-19.58-25.76,18.61-20.82,70.08,10.07,118.37-19.49-4.84-36.8-4.83-49.14.41-20.08,4.92-34.15,16.34-34.15,29.64,0,10.39,8.58,19.62,21.9,25.51,10.35,21.96,32.06,46.18,61.3,65.97,52.07,35.23,108.3,43.07,125.6,17.5,10.88-16.07,3.76-41.52-15.95-66.96,5.01-1.03,9.62-2.96,13.68-5.9,6.15-4.45,10.54-10.78,13.26-18.48,10.53,6.75,20.81,9.06,29.56,5.65.72-.28,1.43-.61,2.11-.96,1.19.74,2.43,1.39,3.74,1.9,9.26,3.61,20.24.83,31.4-6.86,2.71,7.77,7.11,14.16,13.31,18.63,3.71,2.68,7.88,4.51,12.38,5.6-19.74,25.45-26.87,50.93-15.99,67.01,17.3,25.56,73.53,17.73,125.6-17.5,29.65-20.06,51.54-44.68,61.71-66.88,13.29-5.89,21.86-15.12,21.86-25.49Z"/>
      <g id="Layer_3">
        <path class="cls-6" d="M232.36,123.84h56.87s45.49-79.61,77.08-77.08c31.59,2.53,44.23,45.49,58.13,96.04,13.9,50.55,16.43,87.19,12.64,141.53-3.79,54.34-59.39,74.56-93.51,75.82-34.12,1.26-171.86-2.53-171.86-2.53,0,0-48.02,1.26-77.08-36.65-29.06-37.91-21.48-60.66-13.9-122.58s35.38-130.16,51.81-144.06c16.43-13.9,31.59-11.37,41.7-5.05s40.44,44.23,48.02,59.39,10.11,15.16,10.11,15.16Z"/>
      </g>
      <g id="Layer_4">
        <path class="cls-1" d="M100.94,232.52"/>
        <path class="cls-1" d="M219.72,147.85"/>
        <path class="cls-4" d="M347.35,80.88s12.64-16.43,22.75-8.85c10.11,7.58,25.27,54.34,31.59,79.61,6.32,25.27,12.64,90.99,11.37,106.15-1.26,15.16-2.53,56.87-44.23,70.77-41.7,13.9-113.73,11.37-113.73,11.37,0,0-90.99-1.26-121.31-17.69-30.33-16.43-36.67-41.44-32.86-89.72,3.79-48.02,16.43-104.89,29.06-131.42,12.64-26.54,22.75-40.44,35.38-27.8,12.64,12.64,36.5,47.69,42.97,61.92s13.9,13.9,13.9,13.9h70.77l5.9-.77c2.95-1.76,5.8-3.92,6.74-5.55,3.54-6.09,10.81-19.73,22.75-36.65,15.16-21.48,18.96-25.27,18.96-25.27Z"/>
      </g>
      <g>
        <path class="cls-7" d="M174.23,118.79s-10.11-16.43-20.22-11.37-22.75,53.07-22.75,53.07c0,0-2.53,10.11,8.85,8.85,11.37-1.26,11.37-3.79,31.59-11.37,20.22-7.58,18.96-8.85,17.69-15.16s-15.16-24.01-15.16-24.01Z"/>
        <path class="cls-7" d="M386.87,162.43s-12.64-48.02-22.75-53.07-20.22,11.37-20.22,11.37c0,0-13.9,17.69-15.16,24.01s-2.53,7.58,17.69,15.16c20.22,7.58,20.22,10.11,31.59,11.37s8.85-8.85,8.85-8.85Z"/>
      </g>
      <g>
        <path class="cls-6" d="M176.76,223.67c-6.95,0-12.64,5.69-12.64,12.64v32.86c0,6.95,5.69,12.64,12.64,12.64s12.64-5.69,12.64-12.64v-32.86c0-6.95-5.69-12.64-12.64-12.64Z"/>
        <path class="cls-6" d="M325.87,224.94c-6.95,0-12.64,5.69-12.64,12.64v32.86c0,6.95,5.69,12.64,12.64,12.64s12.64-5.69,12.64-12.64v-32.86c0-6.95-5.69-12.64-12.64-12.64Z"/>
        <path class="cls-6" d="M96.49,271.41h23.74c4.96,0,8.98,4.02,8.98,8.98v.67c0,4.96-4.02,8.98-8.98,8.98h-23.74c-4.96,0-8.98-4.02-8.98-8.98v-.68c0-4.96,4.02-8.98,8.98-8.98Z" transform="translate(-84.04 49.36) rotate(-18.64)"/>
        <path class="cls-6" d="M112,303.89h23.74c4.96,0,8.98,4.02,8.98,8.98v.68c0,4.96-4.02,8.98-8.98,8.98h-23.74c-4.96,0-8.98-4.02-8.98-8.98v-.68c0-4.96,4.02-8.98,8.98-8.98Z" transform="translate(-155.08 124.45) rotate(-34.34)"/>
        <rect class="cls-6" x="390.72" y="261.99" width="18.63" height="41.7" rx="8.98" ry="8.98" transform="translate(4.18 571.5) rotate(-71.36)"/>
        <rect class="cls-6" x="375.22" y="294.48" width="18.63" height="41.7" rx="8.98" ry="8.98" transform="translate(-92.74 454.99) rotate(-55.66)"/>
        <path class="cls-6" d="M277.22,267.27c-.71-.44-1.71-.47-2.53,0-1,.57-1.16,3.16-1.26,3.79-.26,1.62-1.03,6.43-2.53,8.85-1.48,2.37-4.59,3.92-7.58,3.79-4.7-.2-7.24-4.46-7.58-5.05-.46-.8-1.16-2.06-1.26-3.79-.09-1.46.33-2.12,0-3.79-.19-.99-.39-1.99-1.26-2.53-.74-.46-1.78-.46-2.53,0-.88.54-1.07,1.54-1.26,2.53-.33,1.67.09,2.33,0,3.79,0,0-.11,1.9-1.26,3.79-1.86,3.06-5.63,4.42-9.48,4.42s-6.91-3.02-7.58-3.79c-.78-.9-2.53-6.32-2.53-8.85,0-1.93-.63-3.16-1.26-3.79s-1.79-.46-2.53,0c-.95.6-1.26,3.12-1.26,5.05,0,3.79.36,4.88,1.9,8.21.68,1.47,2,4.33,5.05,6.32,4.5,2.93,12.37,2.88,16.43,0,2.45-1.74,3.25-4.02,5.05-3.79,1.58.2,1.87,2.06,3.79,3.79,2.91,2.62,5.68,2.56,7.58,2.53,1.2-.02,8.35-.28,12.64-6.32,0,0,3.47-4.77,2.53-11.37-.24-1.64-.8-3.5-1.26-3.79Z"/>
      </g>
      <path class="cls-6" d="M169.45,357.6s-5.33,16.45-12.92,48.04c-7.58,31.59,2.53,34.12-36.65,36.65-18.99,1.22-29.36,8.68-35.02,16.04-7.11,9.25-7.54,22.18-.75,31.67,4.57,6.39,12.65,12.38,26.92,12.95,31.59,1.26,298.23,2.53,298.23,2.53,0,0,20.22-3.79,22.75-26.54,2.53-22.75-15.16-34.12-21.48-37.91-6.32-3.79-25.27-8.85-35.38-10.11-10.11-1.26-15.16-7.58-20.22-41.7-5.05-34.12-28.46-52.14-28.46-52.14l-157.02,20.52Z"/>
      <path class="cls-4" d="M199.5,360.15s-7.73,18.15-14.35,38.68c-6.22,19.27-11.45,40.64-8.39,51.04,6.32,21.48,13.9,32.86,36.65,32.86s17.69,0,17.69,0c0,0-6.32-5.05-6.32-12.64s-2.53-12.64-5.05-20.22-16.43-39.17-16.43-39.17c0,0-2.53-11.37,6.32-15.16,8.85-3.79,13.9,7.58,13.9,7.58l10.11,21.48s2.53,2.53,11.37-6.32,17.69-11.37,32.86-12.64,36.65,3.79,41.7,12.64c5.05,8.85,1.26,13.9,1.26,13.9,0,0-3.79,7.58-16.43,1.26-12.64-6.32-21.48-7.58-35.38-2.53-13.9,5.05-17.69,17.69-20.22,26.54-2.53,8.85,5.05,21.48,10.11,22.75s146.59,2.53,146.59,2.53c0,0,3.79-1.26,3.79-7.58s-8.85-11.37-8.85-11.37c0,0-60.66-20.22-64.45-50.55-3.84-30.74-20.22-50.55-20.22-50.55h-27.8s-7.58-2.53-8.85-11.37c-1.26-8.85,6.04-11.43,6.04-11.43l-55.63-.93s5.75,4.3,4.92,10.85-.83,9.08-7.14,10.35c-6.32,1.26-27.8,0-27.8,0Z"/>
      <path class="cls-4" d="M154.01,463.77s3.79,13.9,7.58,17.69-45.49,1.26-45.49,1.26c0,0-6.32-2.53-2.53-8.85,2.16-3.59,4.72-5.96,6.53-7.33,1.3-.98,2.87-1.54,4.49-1.6l29.41-1.18Z"/>
      <g>
        <path class="cls-2" d="M225.49,474.45c-7.25.68-14.63-.13-21.6-2.66-7.23-2.63-14.35-6.5-19.44-12.4-2.2-2.55-3.95-5.12-5.36-7.77-.72-.35-1.43-.71-2.14-1.09,6.28,21.05,13.94,32.2,36.45,32.2h17.69s-3.96-3.18-5.61-8.27Z"/>
        <path class="cls-2" d="M407.14,469.61h-67.24c-1.2,1.51-2.33,3.08-3.31,4.79-.16.6-.32,1.2-.46,1.8-.2.79-.35,1.59-.5,2.39.02,1.17.14,2.54.21,3.37,35.4.46,69.64.77,69.64.77,0,0,3.79-1.26,3.79-7.58,0-2.02-.91-3.9-2.14-5.54Z"/>
        <path class="cls-2" d="M287.96,362.68s-7.58-2.53-8.85-11.37c-1.26-8.85,6.04-11.43,6.04-11.43l-55.63-.93s5.75,4.3,4.92,10.85c-.83,6.56-.83,9.08-7.14,10.35-6.32,1.26-27.8,0-27.8,0,0,0-6.61,15.52-12.84,34.09.78,1.03,1.49,2.1,2.11,3.21,1.26,2.24,3.16,4.06,5.53,5.03,2.89,1.19,5.78,2.35,8.69,3.48.21-3.59,1.54-8.25,6.61-10.43,8.85-3.79,13.9,7.58,13.9,7.58l5.63,11.96c1.4.43,2.81.85,4.22,1.26,2.04.6,4.16.87,6.29.82,2.27-.06,4.54-.15,6.81-.27,8.38-7.72,17.07-10.05,31.4-11.24,7.1-.59,15.44.28,22.9,2.25,10.63-3.77,21-8.31,31.04-13.7-6.22-19.63-16.03-31.51-16.03-31.51h-27.8Z"/>
        <path class="cls-2" d="M154.01,463.77l-5.09.2c-1.03,3.81-4.04,6.93-8.03,8.57-3.42,1.41-21.34,1.29-16.62,8.77.38.61.64,1.21.8,1.79,14.02.52,39.27,1.1,36.51-1.65-3.79-3.79-7.58-17.69-7.58-17.69Z"/>
      </g>
    </g>
  </g>
</svg>